<svg version="1.1" id="Layer_1" xmlns="http://www.w3.org/2000/svg" xmlns:xlink="http://www.w3.org/1999/xlink" x="0px" y="0px"
	 width="100%" viewBox="0 0 1223 1223" enable-background="new 0 0 1223 1223" xml:space="preserve">
<path fill="#000000" opacity="1.000000" stroke="none" 
	d="
M581.000000,0.999999 
	C602.354248,1.000000 623.708435,1.000000 645.690063,1.402726 
	C684.631714,3.841477 722.442505,9.333346 759.658936,18.672739 
	C875.393250,47.716045 974.763733,105.212158 1056.602417,191.980759 
	C1154.420288,295.691193 1209.496460,418.978088 1222.198608,561.083984 
	C1222.585205,565.408447 1223.390015,569.695496 1224.000000,574.000000 
	C1224.000000,599.687561 1224.000000,625.375122 1223.611084,651.698242 
	C1220.735474,673.312073 1219.251343,694.466553 1215.599121,715.239807 
	C1192.319092,847.651184 1132.448242,961.077148 1035.306519,1053.896973 
	C931.273071,1153.301636 806.943604,1209.320190 663.420959,1222.226318 
	C658.930420,1222.630005 654.472900,1223.400513 650.000000,1224.000000 
	C624.645752,1224.000000 599.291565,1224.000000 573.302979,1223.609985 
	C527.207092,1220.058105 482.528168,1212.449097 438.843750,1199.371460 
	C333.934113,1167.964478 243.790054,1112.466797 168.325012,1033.145142 
	C126.983452,989.690857 92.871254,941.106628 65.945114,887.521362 
	C30.067179,816.121399 8.927389,740.588745 2.798033,660.879456 
	C2.466322,656.565735 1.611379,652.292236 0.999999,648.000000 
	C1.000000,626.312439 1.000000,604.624878 1.382324,582.272949 
	C4.100564,543.411499 9.459926,505.653351 18.411598,468.435364 
	C26.078672,436.558228 35.579849,405.274780 49.487335,375.107727 
	C49.923073,374.110168 50.080528,373.369080 50.337704,372.374939 
	C50.809399,371.109192 51.181370,370.096527 51.940483,369.118652 
	C53.913071,366.427643 55.242077,363.507904 57.130203,361.010986 
	C63.826454,352.155609 70.259392,343.033875 77.685410,334.820801 
	C82.772415,329.194611 87.679710,329.810638 93.469101,334.712738 
	C102.574699,342.422699 109.098259,352.284393 114.098709,362.764465 
	C128.185226,392.287262 141.440552,422.205994 155.096176,451.935333 
	C161.344589,465.538635 167.766174,479.062408 174.103149,492.625061 
	C176.021851,496.731537 179.200806,498.101227 183.719406,498.074371 
	C209.550934,497.920868 235.384705,497.888702 261.215576,498.089386 
	C266.657776,498.131714 270.014984,495.597778 272.380768,491.336792 
	C277.323822,482.433899 282.027466,473.398346 286.857452,464.432373 
	C303.229767,434.039886 319.394806,403.532593 336.101349,373.324829 
	C342.873413,361.080017 351.527496,350.103271 361.940613,340.520416 
	C368.239502,334.723724 377.776703,334.602051 383.794159,340.893219 
	C393.376129,350.911041 400.284454,362.415558 405.715424,374.803009 
	C419.752563,406.820160 427.083130,440.755341 433.079529,475.004272 
	C435.851715,490.837830 438.451050,506.704407 440.891113,522.592529 
	C443.112885,537.059570 445.086639,551.566162 447.031372,566.073853 
	C448.518860,577.170654 449.839020,588.290710 451.144684,599.410828 
	C452.522186,611.142639 453.907562,622.875549 455.077423,634.629150 
	C456.062469,644.525452 457.786469,654.148315 462.958832,662.865845 
	C471.061951,676.522888 485.379822,680.917114 499.448212,673.798401 
	C508.326233,669.305969 514.072998,661.895752 518.107422,652.959412 
	C534.843445,615.888245 561.319031,586.734009 593.314331,562.496521 
	C614.167664,546.699402 636.919373,533.866760 661.240112,523.906677 
	C692.265564,511.200867 724.404114,503.302887 757.914490,502.193085 
	C772.081421,501.723907 786.538391,502.041046 800.470703,504.360626 
	C820.594666,507.710999 840.597778,512.380920 860.222717,517.991028 
	C887.182068,525.697815 912.463562,537.737061 936.358704,552.363953 
	C961.248108,567.599426 984.227844,585.289307 1003.289978,607.693665 
	C1008.618530,613.956543 1014.121460,620.197998 1020.296509,625.587646 
	C1033.905640,637.465942 1049.697021,643.765198 1068.154053,642.971924 
	C1082.529663,642.354004 1093.789185,634.542725 1096.657837,621.719666 
	C1097.953003,615.929749 1098.320068,609.932190 1099.360352,603.702332 
	C1099.777588,584.297058 1099.952148,565.218445 1100.071411,546.139404 
	C1100.076050,545.411438 1099.547974,544.680176 1099.155273,543.498047 
	C1100.341797,525.511780 1095.087158,508.737335 1092.759644,491.651093 
	C1089.460938,467.434753 1083.537476,443.711121 1076.213379,420.346558 
	C1063.795410,380.732086 1046.552368,343.351440 1024.614990,308.151245 
	C1008.258911,281.906464 989.449768,257.436310 968.270691,234.951797 
	C956.016174,221.942017 942.788940,209.769470 929.296692,198.027740 
	C916.844421,187.191086 903.853699,176.869019 890.390686,167.320679 
	C865.214478,149.465027 838.312500,134.496368 810.074036,121.965515 
	C786.880432,111.673302 763.018127,103.418243 738.528992,96.688332 
	C703.197327,86.978806 667.210510,81.873787 630.737183,80.251991 
	C607.708740,79.228035 584.704712,80.410202 561.697571,82.742889 
	C534.554321,85.494949 507.936768,90.482574 481.717926,97.799751 
	C424.211609,113.848640 371.509644,139.699936 323.534760,175.274429 
	C317.291138,179.904221 310.484741,183.909821 303.543701,187.423630 
	C297.498749,190.483810 291.068420,191.548492 283.894501,190.206100 
	C262.646454,186.230118 248.610001,168.856262 248.218918,148.410233 
	C247.946304,134.157639 253.947617,121.901909 265.792664,113.289253 
	C294.258545,92.591415 324.358856,74.582970 355.931396,59.026695 
	C357.432251,58.287220 358.682861,57.039848 360.024689,56.015224 
	C359.999359,56.001453 360.008179,56.058434 360.328552,56.298679 
	C361.117981,56.042583 361.587097,55.546238 362.028259,55.029148 
	C362.000366,55.008404 362.016418,55.076103 362.319153,55.347084 
	C363.102936,55.101147 363.583954,54.584229 364.035889,54.040939 
	C364.006836,54.014576 364.015198,54.092636 364.325897,54.351784 
	C366.106842,53.745354 367.577118,52.879780 369.028625,52.014801 
	C369.009918,52.015404 368.996124,52.050198 369.328491,52.176750 
	C370.128571,51.887512 370.596283,51.471718 371.036652,51.032249 
	C371.009308,51.008579 371.013062,51.080803 371.349518,51.231781 
	C372.459808,50.898190 373.233643,50.413624 374.003448,49.962402 
	C373.999420,49.995747 373.935272,49.975826 374.271179,50.030655 
	C375.083771,49.717068 375.560455,49.348656 376.030365,49.005615 
	C376.023560,49.030991 375.971039,49.030083 376.302368,49.093346 
	C377.115570,48.792679 377.597382,48.428753 378.048767,48.041374 
	C378.018311,48.017925 378.015411,48.094715 378.339050,48.184906 
	C379.169220,47.912071 379.675751,47.549042 380.139465,47.139339 
	C380.096680,47.092667 380.027161,47.198570 380.395447,47.291351 
	C381.389954,46.994324 382.016113,46.604519 382.930054,46.043488 
	C442.040619,21.051374 503.629242,8.027179 567.035889,2.719827 
	C571.705811,2.328935 576.346008,1.581612 581.000000,0.999999 
M280.600403,568.777588 
	C266.080933,565.971191 252.429840,578.619385 254.536697,592.926453 
	C256.214508,604.320007 265.724854,612.777588 276.728546,612.661682 
	C287.669495,612.546509 296.926483,604.191589 298.482910,593.027283 
	C300.003021,582.123596 292.924774,572.138611 280.600403,568.777588 
M150.474640,598.716492 
	C151.080261,599.898926 151.597412,601.137329 152.305359,602.254944 
	C158.546616,612.107483 171.416931,615.381104 181.655960,609.752930 
	C191.889160,604.127991 195.979797,591.365479 190.900711,580.909668 
	C185.818436,570.447266 173.905502,565.670227 163.138687,569.777222 
	C151.834915,574.089050 146.581314,585.503662 150.474640,598.716492 
z"/>
<path fill="#2624FF" opacity="1.000000" stroke="none" 
	d="
M51.940487,369.118652 
	C61.517021,348.998016 70.436447,328.309814 81.617798,308.926422 
	C143.442032,201.751083 229.851379,120.368553 340.354462,64.640625 
	C346.580963,61.500530 352.991669,58.725613 359.683319,55.904865 
	C358.682861,57.039848 357.432251,58.287220 355.931396,59.026695 
	C324.358856,74.582970 294.258545,92.591415 265.792664,113.289253 
	C253.947617,121.901909 247.946304,134.157639 248.218918,148.410233 
	C248.610001,168.856262 262.646454,186.230118 283.894501,190.206100 
	C291.068420,191.548492 297.498749,190.483810 303.543701,187.423630 
	C310.484741,183.909821 317.291138,179.904221 323.534760,175.274429 
	C371.509644,139.699936 424.211609,113.848640 481.717926,97.799751 
	C507.936768,90.482574 534.554321,85.494949 561.697571,82.742889 
	C584.704712,80.410202 607.708740,79.228035 630.737183,80.251991 
	C667.210510,81.873787 703.197327,86.978806 738.528992,96.688332 
	C763.018127,103.418243 786.880432,111.673302 810.074036,121.965515 
	C838.312500,134.496368 865.214478,149.465027 890.390686,167.320679 
	C903.853699,176.869019 916.844421,187.191086 929.296692,198.027740 
	C942.788940,209.769470 956.016174,221.942017 968.270691,234.951797 
	C989.449768,257.436310 1008.258911,281.906464 1024.614990,308.151245 
	C1046.552368,343.351440 1063.795410,380.732086 1076.213379,420.346558 
	C1083.537476,443.711121 1089.460938,467.434753 1092.759644,491.651093 
	C1095.087158,508.737335 1100.341797,525.511780 1099.143555,543.967529 
	C1099.199219,564.602539 1099.153687,584.315735 1099.108276,604.028870 
	C1098.320068,609.932190 1097.953003,615.929749 1096.657837,621.719666 
	C1093.789185,634.542725 1082.529663,642.354004 1068.154053,642.971924 
	C1049.697021,643.765198 1033.905640,637.465942 1020.296509,625.587646 
	C1014.121460,620.197998 1008.618530,613.956543 1003.289978,607.693665 
	C984.227844,585.289307 961.248108,567.599426 936.358704,552.363953 
	C912.463562,537.737061 887.182068,525.697815 860.222717,517.991028 
	C840.597778,512.380920 820.594666,507.710999 800.470703,504.360626 
	C786.538391,502.041046 772.081421,501.723907 757.914490,502.193085 
	C724.404114,503.302887 692.265564,511.200867 661.240112,523.906677 
	C636.919373,533.866760 614.167664,546.699402 593.314331,562.496521 
	C561.319031,586.734009 534.843445,615.888245 518.107422,652.959412 
	C514.072998,661.895752 508.326233,669.305969 499.448212,673.798401 
	C485.379822,680.917114 471.061951,676.522888 462.958832,662.865845 
	C457.786469,654.148315 456.062469,644.525452 455.077423,634.629150 
	C453.907562,622.875549 452.522186,611.142639 451.144684,599.410828 
	C449.839020,588.290710 448.518860,577.170654 447.031372,566.073853 
	C445.086639,551.566162 443.112885,537.059570 440.891113,522.592529 
	C438.451050,506.704407 435.851715,490.837830 433.079529,475.004272 
	C427.083130,440.755341 419.752563,406.820160 405.715424,374.803009 
	C400.284454,362.415558 393.376129,350.911041 383.794159,340.893219 
	C377.776703,334.602051 368.239502,334.723724 361.940613,340.520416 
	C351.527496,350.103271 342.873413,361.080017 336.101349,373.324829 
	C319.394806,403.532593 303.229767,434.039886 286.857452,464.432373 
	C282.027466,473.398346 277.323822,482.433899 272.380768,491.336792 
	C270.014984,495.597778 266.657776,498.131714 261.215576,498.089386 
	C235.384705,497.888702 209.550934,497.920868 183.719406,498.074371 
	C179.200806,498.101227 176.021851,496.731537 174.103149,492.625061 
	C167.766174,479.062408 161.344589,465.538635 155.096176,451.935333 
	C141.440552,422.205994 128.185226,392.287262 114.098709,362.764465 
	C109.098259,352.284393 102.574699,342.422699 93.469101,334.712738 
	C87.679710,329.810638 82.772415,329.194611 77.685410,334.820801 
	C70.259392,343.033875 63.826454,352.155609 57.130203,361.010986 
	C55.242077,363.507904 53.913071,366.427643 51.940487,369.118652 
z"/>
<path fill="#2725FD" opacity="1.000000" stroke="none" 
	d="
M281.001099,568.854614 
	C292.924774,572.138611 300.003021,582.123596 298.482910,593.027283 
	C296.926483,604.191589 287.669495,612.546509 276.728546,612.661682 
	C265.724854,612.777588 256.214508,604.320007 254.536697,592.926453 
	C252.429840,578.619385 266.080933,565.971191 281.001099,568.854614 
z"/>
<path fill="#2725FD" opacity="1.000000" stroke="none" 
	d="
M150.314728,598.351929 
	C146.581314,585.503662 151.834915,574.089050 163.138687,569.777222 
	C173.905502,565.670227 185.818436,570.447266 190.900711,580.909668 
	C195.979797,591.365479 191.889160,604.127991 181.655960,609.752930 
	C171.416931,615.381104 158.546616,612.107483 152.305359,602.254944 
	C151.597412,601.137329 151.080261,599.898926 150.314728,598.351929 
z"/>
</svg>